<svg xmlns="http://www.w3.org/2000/svg" viewBox="0 0 64 64">
  <defs>
    <linearGradient id="bg" x1="12%" x2="88%" y1="14%" y2="86%">
      <stop offset="0%" stop-color="#B7664F"/>
      <stop offset="100%" stop-color="#A45A45"/>
    </linearGradient>
    <linearGradient id="inner" x1="0%" y1="0%" x2="0%" y2="100%">
      <stop offset="0%" stop-color="rgba(255, 255, 255, 0.12)"/>
      <stop offset="100%" stop-color="rgba(0, 0, 0, 0.12)"/>
    </linearGradient>
  </defs>
  <rect x="2" y="2" width="60" height="60" rx="16" ry="16" fill="url(#bg)"/>
  <rect x="7" y="6" width="50" height="52" rx="15" ry="15" fill="url(#inner)" opacity="0.35"/>
  <rect x="15" y="15" width="9" height="34" rx="4.5" fill="#FCF9F3"/>
  <rect x="23" y="15" width="19" height="9" rx="4.5" fill="#FCF9F3"/>
  <rect x="23" y="26" width="15" height="9" rx="4.5" fill="#FCF9F3"/>
  <path d="M38 19h9a9 9 0 0 1 9 9v14c0 6.63-4.48 12-12 12s-12-5.37-12-12V33h9v9c0 1.82 1.18 4 3 4s3-2.18 3-4V28c0-2.2-1.8-4-4-4h-5z" fill="#FCF9F3"/>
  <path d="M45.5 24c2.48 0 4.5 2.02 4.5 4.5V42c0 3.87-3.13 7-7 7s-7-3.13-7-7v-5.5h5.5V42c0 .81.63 1.5 1.5 1.5S44 42.81 44 42V28.5c0-.83-.67-1.5-1.5-1.5z" fill="#A45A45"/>
</svg>

